<?xml version="1.0" encoding="UTF-8"?>
<svg id="LLOCK_mascote" data-name="LLOCK mascote" xmlns="http://www.w3.org/2000/svg" viewBox="0 0 160 160">
  <defs>
    <style>
      .cls-1 {
        stroke: #6232bc;
      }

      .cls-1, .cls-2 {
        fill: none;
        stroke-miterlimit: 10;
      }

      .cls-3 {
        fill: #bab5c9;
      }

      .cls-4 {
        fill: #1d0a4b;
      }

      .cls-5 {
        fill: #1a0847;
      }

      .cls-6 {
        fill: #fdf9f3;
      }

      .cls-2 {
        stroke: #642fc5;
      }

      .cls-7 {
        fill: #6232bc;
      }
    </style>
  </defs>
  <g>
    <g>
      <ellipse class="cls-7" cx="80.24" cy="37.49" rx="14.98" ry="16.49"/>
      <rect class="cls-7" x="65.32" y="38.3" width="29.87" height="15.7"/>
      <rect class="cls-7" x="65.44" y="38.73" width="29.59" height="12.56"/>
    </g>
    <g>
      <ellipse class="cls-7" cx="79.11" cy="121.27" rx="14.98" ry="16.49"/>
      <rect class="cls-7" x="64.16" y="104.76" width="29.87" height="15.7" transform="translate(158.2 225.22) rotate(-180)"/>
      <rect class="cls-7" x="64.33" y="107.47" width="29.59" height="12.56" transform="translate(158.24 227.5) rotate(-180)"/>
    </g>
    <g>
      <path class="cls-7" d="M40.31,61.43c-6.98-6.49-8.18-15.89-2.68-21s15.62-4,22.61,2.49c6.98,6.49,8.18,15.89,2.68,21-5.5,5.11-15.62,4-22.61-2.49Z"/>
      <polygon class="cls-7" points="53.01 73.16 40.96 61.97 60.83 43.51 72.88 54.7 53.01 73.16"/>
      <polygon class="cls-7" points="51.01 71.15 41.37 62.2 61.06 43.92 70.69 52.87 51.01 71.15"/>
    </g>
    <g>
      <path class="cls-7" d="M59.06,122.83c-7.33,6.14-17.99,6.27-23.82.28s-4.6-15.82,2.73-21.97c7.33-6.14,17.99-6.27,23.82-.28,5.82,5.99,4.6,15.82-2.73,21.97Z"/>
      <polygon class="cls-7" points="70.14 109.27 57.55 119.92 38.64 100.61 51.23 89.97 70.14 109.27"/>
      <polygon class="cls-7" points="67.89 111.03 57.82 119.55 39.08 100.43 49.16 91.91 67.89 111.03"/>
    </g>
    <g>
      <path class="cls-7" d="M122.22,103.6c5.87,7.38,5.16,17.11-1.58,21.73-6.74,4.63-16.96,2.4-22.83-4.98-5.87-7.38-5.16-17.11,1.58-21.73,6.74-4.63,16.96-2.4,22.83,4.98Z"/>
      <polygon class="cls-7" points="111.58 90.22 121.66 102.97 99.02 118.43 88.93 105.68 111.58 90.22"/>
      <polygon class="cls-7" points="113.22 92.49 121.29 102.68 98.87 117.99 90.8 107.8 113.22 92.49"/>
    </g>
    <g>
      <path class="cls-7" d="M99.69,43.28c6.71-6.73,16.78-8.2,22.49-3.29,5.71,4.91,4.9,14.35-1.82,21.08-6.71,6.73-16.78,8.2-22.49,3.29-5.71-4.91-4.9-14.35,1.82-21.08Z"/>
      <polygon class="cls-7" points="87.56 55.52 99.13 43.91 119.75 61.65 108.17 73.25 87.56 55.52"/>
      <polygon class="cls-7" points="89.64 53.59 98.9 44.3 119.32 61.87 110.06 71.15 89.64 53.59"/>
    </g>
    <g>
      <ellipse class="cls-7" cx="119.74" cy="82.4" rx="16.55" ry="19.21" transform="translate(33.74 199.57) rotate(-88.25)"/>
      <polygon class="cls-7" points="101.57 64.89 119.24 65.87 117.21 97.66 99.54 96.68 101.57 64.89"/>
      <polygon class="cls-7" points="104.62 65.19 118.75 65.97 116.74 97.46 102.6 96.68 104.62 65.19"/>
    </g>
    <g>
      <path class="cls-7" d="M42.53,98.39c-9.97,1.72-19.46-3.92-21.2-12.6-1.74-8.68,4.93-17.12,14.9-18.85,9.97-1.72,19.46,3.92,21.2,12.6,1.74,8.68-4.93,17.12-14.9,18.85Z"/>
      <polygon class="cls-7" points="60.42 94.37 43.68 97.27 37.56 66.73 54.3 63.84 60.42 94.37"/>
      <polygon class="cls-7" points="57.51 94.75 44.12 97.06 38.05 66.82 51.45 64.5 57.51 94.75"/>
    </g>
    <rect class="cls-7" x="48.57" y="52.73" width="63.96" height="55.23"/>
  </g>
  <g>
    <g>
      <ellipse class="cls-6" cx="93.35" cy="74.41" rx="6.39" ry="7.63"/>
      <ellipse class="cls-5" cx="90.89" cy="76.5" rx="3.98" ry="5.75" transform="translate(-22.16 40) rotate(-22.19)"/>
      <ellipse class="cls-1" cx="93.35" cy="74.41" rx="6.39" ry="7.63"/>
    </g>
    <g>
      <ellipse class="cls-6" cx="66.89" cy="74.41" rx="6.39" ry="7.63"/>
      <ellipse class="cls-5" cx="69.11" cy="76.71" rx="5.75" ry="3.98" transform="translate(-25.11 118.96) rotate(-72.14)"/>
      <ellipse class="cls-2" cx="66.89" cy="74.41" rx="6.39" ry="7.63"/>
    </g>
    <path class="cls-4" d="M78.51,79.2c.02.09.07.22.17.36.03.04.07.08.12.13.03.03.24.22.51.34.3.14.85.26,1.42.05.41-.15.65-.41.69-.46.18-.2.26-.4.28-.44.04-.11.05-.16.1-.42.13-.65.19-.76.23-.82.05-.07.15-.21.33-.29.35-.16.69,0,.75.03.07.03.22.1.34.26.11.15.13.3.16.52.03.24.02.42,0,.58-.01.12-.03.32-.1.57-.09.31-.21.53-.27.63-.12.21-.24.35-.41.54-.19.22-.3.35-.48.49-.34.28-.67.41-.9.5-.36.14-.66.19-.72.2-.12.02-.67.1-1.38-.05-.28-.06-.68-.15-1.11-.43-.3-.2-.5-.41-.65-.57-.16-.17-.34-.36-.52-.66-.2-.35-.29-.65-.34-.83-.08-.28-.15-.57-.12-.94.03-.3.05-.57.27-.78.3-.28.71-.22.75-.22.07.01.39.07.57.33.07.1.1.22.16.46.05.19.07.35.08.45.03.27.02.29.05.44Z"/>
  </g>
  <g>
    <g>
      <path class="cls-3" d="M91.39,103.16c-.23.03-.45.08-.68.14l-4.44-.03h0c.16-.38.11-1.66.03-4.21-.08-2.01-.19-2.63-.44-3.31-.49-1.29-1.25-2.16-1.69-2.6-.65-.63-1.99-1.71-3.94-1.96-.18-.03-.83-.1-1.69,0-.53.06-3.21.36-5.03,2.68-1.34,1.71-1.52,3.61-1.53,4.25v.89c0,.51.01,1.27,0,2.18-.01,1.49-.03,1.81-.01,1.97l-4.31-.03c-.15-.01-.31-.03-.5-.03.01-.44.04-1.18.01-2.57-.01-.92-.03-1.37,0-2.14.03-.58.06-1.42.2-2.27.29-1.68.92-2.88,1.3-3.62.36-.69,1.09-2.06,2.53-3.42,1.4-1.32,2.76-1.97,3.32-2.22,1.47-.65,2.71-.82,3.39-.9.71-.09,1.79-.21,3.2,0,.26.05,1.47.24,2.91.92,1.32.61,2.19,1.33,2.68,1.73.58.48,1.4,1.17,2.22,2.31,0,0,1.18,1.63,1.89,4.13.13.41.21.83.21.83.1.44.21,1.27.24,1.56.08.78.39,4,.13,5.73Z"/>
      <path class="cls-3" d="M97.3,108.32c-.03,1.68-.01,2.93-.01,3.4.05,4.1.08,6.18-.03,8.09-.15,2.93-.4,3.96-.82,4.93-.28.66-.78,1.82-1.92,2.91-1.62,1.56-3.51,1.98-4.11,2.12-1.02.23-2.13.28-2.28.28-.41.03-.61,0-1.54,0h-7.22c-3.65,0-4.99.01-6.46,0-.21,0-1.05-.01-2.18-.01h-.89c-1.19,0-6.17-1.13-8.05-5.07-.41-.87-.53-2.22-.74-4.93-.19-2.51-.14-5-.1-6.47.03-1.28.06-1.73.06-3.01-.01-1.52-.09-1.88,0-2.83.11-1.24.2-2.07.74-2.96.13-.2.6-.97,1.54-1.57,1-.64,1.97-.75,2.67-.83.43-.04.82-.05,1.14-.03.19,0,.35.01.5.03l4.31.03,14.31.1,4.44.03c.23-.06.45-.11.68-.14,1.79-.3,3.51.16,4.58,1.24.9.9,1.4,2.33,1.42,2.98v.4c0,.7-.04,1.2-.04,1.32Z"/>
    </g>
    <g>
      <circle class="cls-4" cx="79.12" cy="113.3" r="4.24"/>
      <path class="cls-4" d="M76.55,122.11c-.09.4-.16.68,0,.89.12.18.35.27.39.27.05,0,.09,0,.1,0,.09-.01,4,0,4.35,0,.02,0,.07.01.14,0,.19-.04.34-.23.41-.4.03-.08.07-.22-.11-.96-.04-.18-.07-.27-.1-.39-.12-.45-.16-.77-.21-1.11-.08-.49-.11-.59-.16-.85,0,0-.05-.26-.1-.57-.03-.21-.09-.59-.11-.95-.04-.95.24-1.34-.04-1.67-.03-.03-.12-.14-.28-.19-.51-.17-.88.53-1.45.44-.21-.04-.14-.13-.71-.41-.26-.13-.73-.36-.85-.22-.03.03-.03.06-.02.27.01.35.02.5.02.5-.02,0-.24-2.08-.39-2.08-.09,0-.2.78-.1,1.56.05.36.1.42.12.77.01.21-.02.53-.09,1.16-.05.51-.05.37-.1.88-.02.23-.04.38-.08.6-.02.13-.03.15-.11.51-.11.52-.12.58-.19.87-.02.09-.06.23-.11.42-.12.44-.14.45-.19.65Z"/>
    </g>
  </g>
  <g>
    <path class="cls-5" d="M48.85,94.88c.61-.46,1.43-.45,1.96,0,.56.47.65,1.29.43,1.7-.04.08-.15.25-.27.4-.16.22-.31.36-.38.43,0,0-.33.33-.76.81-.3.33-.48.62-.84,1.19-.25.39-.51.81-.75,1.32-.11.23-.51,1.11-.69,2.27,0,0-.28,1.81.24,3.66.96,3.4,4.2,5.22,6.67,6.6,0,0,2.77,1.55,5.2,1.55h.13s.05-.1.07-.14c.03-.07.07-.19.13-.32.44-.94,1.21-1.4,2.08-1.91,0,0,1.27-.74,2.96-1.17.06-.01.29-.07.57-.13.21-.05.32-.07.38-.08.12-.01.41-.04.74.08.16.06.48.17.65.49.1.17.12.34.12.42,0,.09.02.27-.08.45-.03.06-.07.1-.16.19-.12.13-.17.14-.33.29-.08.08-.09.09-.14.14-.07.06-.1.06-.21.15-.04.03-.07.06-.15.11-.11.08-.1.08-.15.12-.06.04-.16.12-.21.15-.11.08-.08.07-.14.11-.1.07-.15.06-.25.12-.08.05-.12.09-.18.13-.27.22-.49.28-.48.32.01.04.18,0,.54-.01.02,0,0,0,.52,0,.29,0,.44,0,.45,0,.22,0,.24,0,.33,0,.11.01.16.03.37.06.14.03.23.04.27.04.44.07.73.26.73.26.05.04.17.11.27.24.27.34.28.87.1,1.24-.22.46-.69.62-1,.72-1.17.38-2.23-.13-2.27,0-.04.11.68.59,1.31.72.07.02.24.05.42.16.04.03.27.17.42.45.18.33.22.77.04,1.17-.03.07-.24.5-.71.67-.28.1-.52.06-.86,0-.55-.1-.95-.3-.95-.3-.28-.14-.42-.23-.46-.18-.06.06.07.33.26.51.21.2.33.13.56.34.19.17.27.36.3.42.08.21.08.38.08.47,0,.05,0,.28-.13.55-.08.18-.22.5-.53.63-.22.1-.41.06-.78,0-.16-.03-.47-.09-.89-.28-.34-.15-.56-.3-.96-.56-.08-.05-.42-.28-.88-.64-.53-.41-.79-.61-.98-.81-.79-.85-1.2-2.08-1.19-2.37,0-.03.01-.13-.06-.2-.06-.05-.13-.04-.23-.04-.13,0-.26-.04-.39-.06-.34-.05-1.43-.25-1.61-.28-.62-.11-1.7-.39-2.8-.8-.82-.31-2.32-.93-3.99-2.08-.68-.46-1.44-1-2.3-1.88-.49-.5-1.41-1.53-2.22-3.06-.38-.73-.92-1.75-1.19-3.2,0,0-.28-1.45-.11-3.09.42-4.01,3.87-7.77,4.34-8.27Z"/>
    <path class="cls-5" d="M108.95,95.72c.01-.12.07-.5.39-.79.26-.24.56-.28.74-.31.49-.07.87.09,1.01.15.25.11.4.24.57.39.27.23.34.37.69.76.3.34.3.3.52.54.32.36.42.58.94,1.37.45.7.39.56.53.8.39.66.6,1.22.79,1.77.22.61.38,1.04.5,1.65.17.83.16,1.46.16,2.31,0,.73,0,1.19-.11,1.81-.13.77-.34,1.31-.57,1.89-.2.5-.57,1.43-1.28,2.53-.26.41-1.01,1.5-2.27,2.64-1.08.98-2.04,1.54-2.74,1.95-.56.32-1.67.96-3.21,1.47-2.34.77-4.77.96-4.77.96-.03-.01-.07-.02-.09,0-.02.02,0,.08,0,.09.05.14-.04.78-.11,1.07-.1.39-.33.66-.81,1.2-.27.31-.51.53-.66.67-.39.36-.72.59-.98.77-.52.37-.89.57-1.35.83-.31.17-.54.28-.85.34-.18.03-.41.08-.69,0-.1-.03-.41-.11-.64-.39-.34-.41-.25-.94-.21-1.1.18-.82,1.06-1.15,1.17-1.19.01,0,.1,0,.13-.04.02-.03,0-.07,0-.09-.02-.03-.07-.04-.08-.04-.29-.03-.84.27-.84.27-.37.2-.8.27-1.12.24-.11,0-.75-.06-1.1-.6-.04-.06-.28-.45-.18-.93.08-.41.36-.64.6-.84.43-.37.91-.49,1.15-.54.04,0,.19,0,.37-.06.14-.05.37-.16.36-.23-.02-.11-.57-.1-.98-.09-.72.01-.83.08-1.17,0-.16-.04-.49-.12-.78-.39-.08-.08-.36-.34-.43-.72-.13-.69.5-1.25.59-1.32.46-.4,1.05-.36,1.81-.34.68.02,1.18.24,1.21.17.02-.05-.18-.14-.7-.53-.16-.12-.3-.23-.45-.39-.15-.15-.23-.22-.27-.3-.21-.34-.04-.86.15-1.15.4-.63,1.18-.72,1.27-.73.51-.05.96.18,1.82.65.64.35.49.36,1.27.8.34.19.71.38,1.14.75.12.1.24.2.38.36.41.46.38.73.62.9.37.25.83.16,1.3.05,1.09-.25,1.64-.37,2.26-.62.98-.39,1.65-.73,2.7-1.26,1.7-.86,2.08-1.14,2.3-1.31.64-.5,1.1-1,1.37-1.3.32-.35.75-.84,1.19-1.55.11-.17.34-.65.8-1.62.31-.63.38-.8.44-1.07.05-.2.06-.36.04-1.32-.02-.86-.02-1.29-.06-1.57-.08-.65-.23-1.13-.29-1.35-.16-.5-.32-.85-.48-1.19-.18-.37-.39-.82-.75-1.35-.38-.56-.97-1.27-1.42-1.66-.07-.06-.31-.27-.55-.6-.04-.05-.13-.15-.19-.3-.02-.05-.05-.15-.07-.34-.01-.14-.01-.35.04-.61Z"/>
  </g>
</svg>